<?xml version="1.0" standalone="no"?>
<!DOCTYPE svg PUBLIC "-//W3C//DTD SVG 20010904//EN"
 "http://www.w3.org/TR/2001/REC-SVG-20010904/DTD/svg10.dtd">
<svg version="1.0" xmlns="http://www.w3.org/2000/svg"
 width="512.000000pt" height="512.000000pt" viewBox="0 0 512.000000 512.000000"
 preserveAspectRatio="xMidYMid meet">

<g transform="translate(0.000000,512.000000) scale(0.100000,-0.100000)"
fill="#000000" stroke="none">
<path d="M2073 4680 c-22 -5 -58 -18 -80 -29 -56 -29 -1945 -1925 -1969 -1976
-26 -55 -26 -175 0 -230 13 -27 324 -345 980 -1002 1055 -1057 997 -1006 1121
-1005 98 0 142 25 278 160 149 147 162 170 162 282 0 63 -5 94 -19 120 -10 19
-271 288 -579 597 l-562 563 1731 0 c1975 0 1797 -8 1895 89 81 82 92 122 87
339 -3 154 -5 171 -28 215 -27 55 -70 96 -133 129 l-42 23 -1750 3 -1749 2
551 553 c626 626 610 606 601 741 -3 44 -13 86 -26 111 -11 22 -76 94 -144
161 -92 91 -134 125 -168 137 -61 21 -107 26 -157 17z"/>
</g>
</svg>
