<?xml version="1.0" standalone="no"?>
<!DOCTYPE svg PUBLIC "-//W3C//DTD SVG 20010904//EN"
 "http://www.w3.org/TR/2001/REC-SVG-20010904/DTD/svg10.dtd">
<svg version="1.0" xmlns="http://www.w3.org/2000/svg"
 width="512.000000pt" height="512.000000pt" viewBox="0 0 512.000000 512.000000"
 preserveAspectRatio="xMidYMid meet">

<g transform="translate(0.000000,512.000000) scale(0.100000,-0.100000)"
fill="#000000" stroke="none">
<path d="M1395 4766 c-71 -18 -858 -414 -930 -469 -108 -81 -192 -207 -232
-348 -17 -61 -18 -141 -18 -1469 0 -1554 -4 -1449 67 -1600 52 -109 166 -227
273 -282 39 -19 250 -95 470 -168 l399 -133 92 5 c75 4 104 11 158 36 110 52
194 144 232 256 l16 46 559 0 c625 0 655 3 784 66 166 81 290 231 342 415 15
55 18 105 18 355 l0 291 -30 48 c-44 71 -118 109 -198 102 -70 -6 -125 -39
-164 -99 l-28 -41 -5 -281 c-5 -306 -6 -311 -67 -368 -62 -59 -52 -58 -658
-58 l-555 0 0 1490 0 1490 560 0 c532 0 563 -1 598 -19 48 -25 87 -66 106
-113 13 -30 16 -84 16 -285 0 -145 5 -264 11 -287 15 -54 83 -119 142 -135 95
-27 195 13 244 97 l28 47 0 290 c0 244 -3 300 -17 352 -51 182 -179 339 -343
418 -134 64 -151 65 -789 65 l-575 0 -25 55 c-81 177 -292 278 -481 231z m95
-2231 c0 -993 -3 -1805 -7 -1805 -14 0 -708 232 -734 245 -39 21 -87 79 -98
122 -15 53 -15 2703 0 2756 22 79 49 97 448 297 207 104 379 189 384 189 4 1
7 -811 7 -1804z"/>
<path d="M4195 3188 c-48 -17 -83 -46 -109 -91 -55 -93 -43 -180 35 -262 27
-29 49 -55 49 -58 0 -4 -375 -7 -833 -7 l-834 0 -44 -23 c-24 -13 -57 -43 -74
-66 -27 -39 -30 -50 -30 -120 0 -68 3 -82 27 -117 15 -21 44 -50 65 -64 l37
-25 843 -3 c464 -1 843 -5 843 -9 0 -3 -22 -29 -49 -58 -81 -86 -91 -179 -28
-272 37 -54 89 -84 158 -91 93 -9 112 5 386 281 239 241 251 254 263 305 9 41
9 63 0 105 -12 50 -24 63 -259 301 -159 160 -260 255 -286 267 -44 20 -113 23
-160 7z"/>
</g>
</svg>
