<?xml version="1.0" standalone="no"?>
<!DOCTYPE svg PUBLIC "-//W3C//DTD SVG 20010904//EN"
 "http://www.w3.org/TR/2001/REC-SVG-20010904/DTD/svg10.dtd">
<svg version="1.0" xmlns="http://www.w3.org/2000/svg"
 width="512.000000pt" height="512.000000pt" viewBox="0 0 512.000000 512.000000"
 preserveAspectRatio="xMidYMid meet">

<g transform="translate(0.000000,512.000000) scale(0.100000,-0.100000)"
fill="#000000" stroke="none">
<path d="M1133 4620 c-203 -53 -354 -202 -420 -415 -17 -57 -18 -132 -18
-1540 l0 -1480 22 -70 c58 -185 199 -328 387 -395 l71 -24 675 -6 675 -5 51
-32 c115 -73 288 -135 444 -159 321 -48 652 36 914 233 442 332 607 913 405
1429 -55 141 -137 268 -246 384 l-93 98 0 739 c0 704 -1 744 -20 817 -28 109
-74 190 -155 271 -81 82 -160 127 -271 155 -75 19 -114 20 -1213 19 -1078 0
-1140 -1 -1208 -19z m2392 -325 c50 -25 105 -80 130 -130 19 -38 20 -67 23
-684 2 -537 0 -642 -11 -638 -272 104 -580 115 -842 31 -395 -128 -704 -454
-809 -854 -83 -314 -41 -633 119 -918 25 -44 45 -83 45 -86 0 -4 -217 -6 -482
-4 l-483 3 -47 23 c-54 27 -109 84 -135 139 -17 36 -18 121 -18 1483 0 1204 2
1452 14 1484 24 69 105 143 181 167 14 4 531 7 1150 6 1097 -2 1126 -2 1165
-22z m-152 -1699 c163 -31 323 -114 444 -230 133 -126 222 -277 265 -452 29
-121 29 -305 0 -416 -74 -277 -234 -477 -477 -598 -149 -75 -229 -93 -405 -93
-176 0 -256 18 -405 93 -200 99 -351 262 -435 468 -93 229 -86 494 20 719 122
261 363 452 640 508 88 18 262 18 353 1z"/>
<path d="M1416 3977 c-109 -61 -106 -221 5 -277 38 -20 58 -20 938 -18 891 3
900 3 927 24 53 39 69 71 69 134 0 63 -16 95 -69 134 -27 21 -36 21 -929 23
l-902 3 -39 -23z"/>
<path d="M1416 3337 c-109 -61 -106 -221 5 -277 36 -19 60 -20 499 -20 439 0
463 1 499 20 113 57 113 223 0 280 -36 19 -60 20 -501 20 -461 0 -463 0 -502
-23z"/>
<path d="M1416 2697 c-109 -61 -106 -221 5 -277 33 -17 59 -20 179 -20 120 0
146 3 179 20 113 57 113 223 0 280 -33 17 -58 20 -181 20 -129 0 -147 -2 -182
-23z"/>
<path d="M3135 2286 c-41 -18 -83 -69 -90 -109 -3 -18 -5 -143 -3 -279 3 -274
3 -275 78 -325 32 -22 40 -23 290 -23 250 0 258 1 291 23 49 32 83 105 74 158
-9 53 -64 115 -113 129 -21 5 -96 10 -169 10 l-132 0 -3 164 c-3 179 -7 192
-70 239 -33 25 -113 32 -153 13z"/>
</g>
</svg>
