<?xml version="1.0" standalone="no"?>
<!DOCTYPE svg PUBLIC "-//W3C//DTD SVG 20010904//EN"
 "http://www.w3.org/TR/2001/REC-SVG-20010904/DTD/svg10.dtd">
<svg version="1.0" xmlns="http://www.w3.org/2000/svg"
 width="512.000000pt" height="512.000000pt" viewBox="0 0 512.000000 512.000000"
 preserveAspectRatio="xMidYMid meet">

<g transform="translate(0.000000,512.000000) scale(0.100000,-0.100000)"
fill="#000000" stroke="none">
<path d="M2110 4908 c-36 -13 -87 -36 -113 -51 -43 -26 -567 -528 -1357 -1302
-428 -418 -418 -408 -451 -479 -100 -214 11 -517 228 -622 52 -25 71 -29 180
-32 l123 -4 2 -1063 c3 -1061 3 -1064 24 -1092 11 -15 36 -38 54 -51 l33 -22
1431 0 c1378 0 1433 1 1466 19 28 15 80 88 265 372 229 352 230 353 290 387
165 92 349 261 450 412 106 159 178 337 212 523 21 122 21 333 -1 457 -80 446
-392 833 -807 1000 l-78 32 -727 706 c-399 389 -750 724 -780 744 -89 60 -154
81 -274 85 -90 3 -115 0 -170 -19z m234 -312 c20 -8 268 -242 607 -572 316
-307 576 -561 577 -566 2 -4 -10 -8 -26 -8 -48 0 -191 -29 -277 -56 -442 -141
-775 -529 -870 -1016 -23 -116 -30 -325 -16 -442 34 -268 147 -517 320 -708
77 -83 219 -192 335 -255 l90 -48 123 -190 c69 -104 129 -198 134 -207 9 -17
-48 -18 -1146 -18 l-1155 0 -2 1063 -3 1062 -23 33 c-43 60 -67 66 -272 72
-156 4 -189 8 -212 23 -58 40 -76 138 -36 196 38 53 1661 1622 1693 1637 39
17 117 18 159 0z m1570 -1500 c191 -58 338 -146 464 -282 285 -305 350 -760
162 -1134 -98 -194 -244 -342 -445 -450 l-93 -51 -172 -264 c-95 -146 -175
-265 -179 -265 -6 0 -142 203 -264 396 -70 110 -103 143 -183 179 -476 217
-681 787 -472 1309 101 252 320 459 579 546 120 41 185 49 354 46 139 -3 172
-7 249 -30z"/>
<path d="M3555 2711 c-249 -40 -430 -207 -480 -446 -71 -339 128 -653 452
-710 98 -18 138 -18 236 0 229 40 401 208 453 442 19 88 15 236 -10 314 -60
190 -208 336 -389 383 -72 19 -198 27 -262 17z m187 -325 c89 -32 160 -125
174 -227 20 -148 -116 -299 -270 -299 -148 0 -270 125 -269 276 1 112 74 216
178 252 42 15 143 14 187 -2z"/>
</g>
</svg>
